<?xml version="1.0" encoding="UTF-8" standalone="no"?>
<!DOCTYPE svg PUBLIC "-//W3C//DTD SVG 20010904//EN"
              "http://www.w3.org/TR/2001/REC-SVG-20010904/DTD/svg10.dtd">

<svg xmlns="http://www.w3.org/2000/svg"
     width="3.00007in" height="3.00007in"
     viewBox="0 0 512 512">
  <path id="Selection"
        fill="black"
        d="M 263.00,60.21
           C 283.35,60.10 307.98,65.94 327.00,73.05
             347.55,80.73 368.60,93.51 385.00,108.05
             448.43,164.28 470.07,254.67 436.57,333.00
             427.08,355.21 413.36,375.37 396.91,393.00
             383.80,407.05 363.24,421.60 346.00,430.25
             312.94,446.82 284.78,452.43 248.00,452.00
             231.51,451.80 209.66,447.22 194.00,442.00
             165.36,432.46 138.42,416.41 117.00,395.00
             60.95,338.94 44.40,251.78 75.43,179.00
             97.53,127.15 139.77,88.33 193.00,70.08
             200.41,67.54 217.27,63.38 225.00,62.28
             225.00,62.28 242.00,60.21 242.00,60.21
             242.00,60.21 263.00,60.21 263.00,60.21 Z
           M 200.00,110.42
           C 160.40,125.38 129.03,156.17 112.43,195.00
             87.73,252.76 100.91,322.75 146.01,366.96
             163.20,383.81 184.23,396.40 207.00,404.00
             219.98,408.33 237.32,411.84 251.00,412.00
             275.27,412.28 300.06,408.03 322.00,397.24
             338.84,388.96 354.93,378.76 367.91,365.00
             416.14,313.83 426.10,239.27 391.13,178.00
             381.48,161.10 370.62,148.86 356.00,136.16
             341.33,123.42 322.36,113.78 304.00,107.67
             286.58,101.87 263.31,98.58 245.00,100.28
             227.02,102.87 217.51,103.81 200.00,110.42 Z
           M 276.00,158.00
           C 276.00,158.00 276.00,236.00 276.00,236.00
             276.00,236.00 354.00,236.00 354.00,236.00
             354.00,236.00 354.00,276.00 354.00,276.00
             354.00,276.00 276.00,276.00 276.00,276.00
             276.00,276.00 276.00,354.00 276.00,354.00
             276.00,354.00 236.00,354.00 236.00,354.00
             236.00,354.00 236.00,276.00 236.00,276.00
             236.00,276.00 158.00,276.00 158.00,276.00
             158.00,276.00 158.00,236.00 158.00,236.00
             158.00,236.00 236.00,236.00 236.00,236.00
             236.00,236.00 236.00,158.00 236.00,158.00
             236.00,158.00 276.00,158.00 276.00,158.00 Z" />
</svg>
